<svg xmlns="http://www.w3.org/2000/svg" width="24" height="24" viewBox="0 0 24 24" fill="none"><g clip-path="url(#clip0_922_948)"><path fill-rule="evenodd" clip-rule="evenodd" d="M16.1952 5.32568C18.4868 5.32568 20.3452 7.19236 20.3452 9.49486V10.884L21.5535 13.2974C21.6727 13.5357 21.6727 13.8174 21.5518 14.0549L20.3452 16.4415V17.8315C20.3452 20.1332 18.4868 21.9999 16.1952 21.9999H7.89434C5.60184 21.9999 3.74434 20.1332 3.74434 17.8315V16.4415L2.51102 14.0624C2.44903 13.9431 2.41645 13.8108 2.41602 13.6764C2.41559 13.542 2.4473 13.4095 2.50852 13.2899L3.74352 10.884V9.49486C3.74352 7.19236 5.60184 5.32572 7.89352 5.32572L16.1952 5.32568ZM8.88684 9.9999C7.84766 9.9999 6.99184 10.8557 6.99184 11.8949V15.2632C7.01352 16.2874 7.86184 17.1182 8.88684 17.1182C9.91102 17.1182 10.7593 16.2874 10.781 15.2632V11.8949C10.781 10.8557 9.92602 10.0008 8.88684 9.9999ZM14.9918 9.9999C13.9527 9.9999 13.0968 10.8557 13.0968 11.8949V15.2632C13.0968 16.3024 13.9527 17.1582 14.9918 17.1582C16.031 17.1582 16.8868 16.3024 16.8868 15.2632V11.8949C16.8868 10.8557 16.031 9.9999 14.9918 9.9999Z" fill="white"></path><path fill-rule="evenodd" clip-rule="evenodd" d="M12.0443 6.63164C13.3152 6.63164 14.3602 5.58668 14.3602 4.31582C14.3602 3.045 13.3152 2 12.0443 2C10.7735 2 9.72852 3.045 9.72852 4.31582C9.72852 5.58668 10.7735 6.63164 12.0443 6.63164Z" fill="white"></path></g><defs><clipPath id="clip0_922_948"><rect width="20" height="20" fill="white" transform="translate(2 2)"></rect></clipPath></defs></svg>
