<svg xmlns="http://www.w3.org/2000/svg" width="24" height="24" viewBox="0 0 24 24" fill="none"><g clip-path="url(#clip0_922_963)"><path d="M17.6667 2H6.33333C5.18406 2 4.08186 2.45655 3.2692 3.2692C2.45655 4.08186 2 5.18406 2 6.33333L2 17.6667C2 18.8159 2.45655 19.9181 3.2692 20.7308C4.08186 21.5435 5.18406 22 6.33333 22H17.6667C18.8159 22 19.9181 21.5435 20.7308 20.7308C21.5435 19.9181 22 18.8159 22 17.6667V6.33333C22 5.18406 21.5435 4.08186 20.7308 3.2692C19.9181 2.45655 18.8159 2 17.6667 2Z" fill="#9046FF"></path><path d="M8.64258 15.6465C7.27258 18.6815 10.1926 19.4432 12.3451 17.6665C12.9784 19.6582 15.3517 18.1724 16.2042 16.6274C18.0801 13.224 17.3226 9.7532 17.1276 9.03737C15.7942 4.15487 9.12758 4.14653 7.98092 9.06237C7.71175 9.9232 7.70758 10.9007 7.55842 11.9149C7.48342 12.429 7.42508 12.7557 7.23092 13.294C7.11508 13.6049 6.96175 13.8774 6.71425 14.3415C6.33258 15.0624 6.49425 16.4499 8.46508 15.729L8.65175 15.6457H8.64342L8.64258 15.6465Z" fill="white"></path><path d="M12.6018 11.1542C12.0552 11.1542 11.9727 10.5001 11.9727 10.1109C11.9727 9.7584 12.0343 9.4809 12.1543 9.30256C12.2018 9.22761 12.2681 9.16641 12.3467 9.12503C12.4252 9.08366 12.5131 9.06356 12.6018 9.06673C12.7927 9.06673 12.9585 9.1459 13.0743 9.30756C13.2068 9.48923 13.2768 9.7659 13.2768 10.1109C13.2768 10.7651 13.0243 11.1542 12.606 11.1542H12.6018ZM14.8543 11.1542C14.3077 11.1542 14.2252 10.5001 14.2252 10.1109C14.2252 9.7584 14.2868 9.4809 14.4077 9.30256C14.4551 9.22774 14.5213 9.16661 14.5996 9.12524C14.678 9.08388 14.7658 9.06371 14.8543 9.06673C15.0452 9.06673 15.211 9.1459 15.3268 9.30756C15.4593 9.48923 15.5293 9.7659 15.5293 10.1109C15.5293 10.7651 15.2768 11.1542 14.8585 11.1542H14.8543Z" fill="black"></path></g><defs><clipPath id="clip0_922_963"><rect width="20" height="20" fill="white" transform="translate(2 2)"></rect></clipPath></defs></svg>
