<svg xmlns="http://www.w3.org/2000/svg" width="24" height="24" viewBox="0 0 24 24" fill="none"><path d="M19.5252 7.60297H19.3802C18.6168 7.60178 17.9973 8.21998 17.9973 8.98324V12.0702C17.9973 12.6866 17.4878 13.1859 16.8814 13.1859C16.5211 13.1859 16.1614 13.0046 15.948 12.7003L12.7953 8.1974C12.5337 7.8235 12.108 7.60059 11.6473 7.60059C10.9285 7.60059 10.2817 8.21166 10.2817 8.96602V12.0707C10.2817 12.6872 9.77635 13.1865 9.16578 13.1865C8.80432 13.1865 8.44521 13.0052 8.23178 12.7009L4.70393 7.66182C4.62426 7.54768 4.44531 7.60416 4.44531 7.74326V10.4354C4.44531 10.5716 4.48693 10.7036 4.5648 10.8153L8.03678 15.7735C8.24189 16.0665 8.54451 16.2841 8.89348 16.3632C9.76684 16.5617 10.5706 15.8894 10.5706 15.0328V11.9299C10.5706 11.3134 11.07 10.8141 11.6865 10.8141H11.6883C12.0599 10.8141 12.4083 10.9954 12.6217 11.2998L15.775 15.802C16.0372 16.1765 16.4409 16.3988 16.9224 16.3988C17.6573 16.3988 18.2869 15.7872 18.2869 15.0334V11.9293C18.2869 11.3129 18.7863 10.8135 19.4028 10.8135H19.5258C19.6031 10.8135 19.6655 10.7511 19.6655 10.6738V7.74266C19.6655 7.66539 19.6031 7.60297 19.5258 7.60297H19.5252Z" fill="#34E8BB"></path></svg>
